<svg xmlns="http://www.w3.org/2000/svg" width="133" height="30" viewBox="0 0 133 30"><path fill="#2ba4a0" d="M130.583 23.923a2.408 2.408 0 01-2.417-2.427c-.01-1.323 1.077-2.404 2.417-2.404 1.296 0 2.406 1.08 2.417 2.404-.011 1.346-1.12 2.427-2.417 2.427zM115.33 30c-1.088 0-2.054-.199-2.593-.43l.923-3.1c1.736.497 2.878.354 3.636-1.521l.34-.916-6.118-17.294h4.218l3.89 12.794h.175l3.9-12.794 4.251.022-6.778 18.97C120.218 28.39 118.428 30 115.33 30zm-4.29-23.261v3.088h-3.328v8.758c0 1.61.802 1.963 1.801 1.963.495 0 .945-.1 1.165-.155l.67 3.122c-.429.143-1.209.364-2.34.397-2.988.088-5.295-1.478-5.273-4.666V9.827h-2.395V6.74h2.395V2.68h3.977v4.06zM98.066 4.335c-1.277 0-2.312-.971-2.312-2.162C95.754.97 96.79 0 98.066 0c1.266 0 2.3.97 2.3 2.173 0 1.191-1.034 2.162-2.3 2.162zM96.062 23.68V6.74h3.976v16.94zM93.486 1.092V23.68h-3.977V1.092zM79.129 21.088c2.391 0 3.905-1.599 3.905-3.485v-1.996c-.516.419-2.6.683-3.642.827-1.777.253-3.104.893-3.104 2.426 0 1.467 1.185 2.228 2.841 2.228zm-1.028 2.934c-3.22 0-5.647-1.765-5.647-5.096 0-3.816 3.13-4.797 6.405-5.15 2.977-.32 4.174-.375 4.174-1.522v-.066c0-1.666-1.01-2.614-2.856-2.614-1.945 0-3.065.992-3.46 2.15l-3.714-.53c.88-3.087 3.604-4.676 7.152-4.676 3.219 0 6.855 1.346 6.855 5.824V23.68h-3.823v-2.327h-.132c-.725 1.423-2.307 2.67-4.954 2.67zm-11.409-7.467V6.74h3.977v16.94h-3.856v-3.01h-.176c-.769 1.896-2.548 3.23-5.075 3.23-3.318 0-5.624-2.304-5.624-6.374V6.739h3.976v10.17c0 2.15 1.275 3.506 3.186 3.506 1.758 0 3.592-1.279 3.592-3.86zM39.85 23.68v-2.537l8.7-10.952v-.143h-8.414V6.739h13.281v2.724l-8.283 10.765v.143h8.569v3.31zm-15.868 0v-2.537l8.7-10.952v-.143h-8.414V6.739h13.281v2.724l-8.283 10.765v.143h8.569v3.31zM19.647 4.335c-1.274 0-2.307-.971-2.307-2.162C17.34.97 18.373 0 19.647 0c1.264 0 2.296.97 2.296 2.173 0 1.191-1.032 2.162-2.296 2.162zM17.648 23.68V6.74h3.967v16.94zM16.412 6.74l-6.009 16.94H6.01L0 6.74h4.24l3.878 12.585h.176L12.183 6.74z"/></svg>